<?xml version="1.0" standalone="no"?>
<!DOCTYPE svg PUBLIC "-//W3C//DTD SVG 20010904//EN"
 "http://www.w3.org/TR/2001/REC-SVG-20010904/DTD/svg10.dtd">
<svg version="1.0" xmlns="http://www.w3.org/2000/svg"
 width="1368.000000pt" height="859.000000pt" viewBox="0 0 1368.000000 859.000000"
 preserveAspectRatio="xMidYMid meet">

<g transform="translate(0.000000,859.000000) scale(0.100000,-0.100000)"
fill="#ffffff" stroke="none">
<path d="M4530 7469 c-72 -43 -306 -302 -726 -804 l-109 -129 -90 -39 c-216
-93 -489 -171 -990 -281 -1336 -294 -2168 -342 -2317 -134 -38 54 -32 135 16
234 33 65 58 98 150 189 263 262 692 478 1188 600 612 150 1126 88 1243 -150
25 -51 26 -172 2 -227 -14 -33 -14 -38 -1 -38 23 0 66 25 96 57 66 69 87 186
48 271 -30 66 -66 107 -138 156 -164 112 -443 162 -762 136 -702 -56 -1432
-354 -1824 -746 -156 -156 -229 -291 -230 -425 -1 -66 2 -80 27 -118 84 -126
301 -178 707 -168 322 9 629 45 1080 128 651 120 1470 332 1663 430 20 11 37
17 37 14 0 -3 -43 -59 -96 -125 -90 -112 -103 -140 -68 -140 9 0 95 25 192 55
336 103 655 185 669 172 3 -4 -29 -49 -72 -102 -72 -90 -88 -125 -53 -125 7 0
123 31 258 70 338 97 564 158 569 154 2 -2 -33 -48 -78 -104 -44 -55 -81 -105
-81 -110 0 -23 58 -6 162 46 185 93 386 166 531 193 43 8 47 7 41 -8 -41 -95
21 -150 155 -138 62 5 132 22 404 96 88 24 105 26 95 12 -7 -9 -43 -53 -80
-98 -69 -84 -82 -113 -50 -113 16 0 579 159 622 176 8 3 42 6 75 7 64 2 132
29 186 75 28 23 35 24 115 19 106 -6 174 -37 239 -109 144 -160 99 -442 -107
-663 -155 -167 -384 -280 -648 -320 -182 -28 -318 -15 -441 44 -56 26 -66 29
-84 17 -11 -7 -21 -25 -23 -39 -10 -84 271 -160 508 -137 517 49 942 381 1010
789 24 146 -7 264 -97 361 -78 85 -156 121 -315 145 l-38 6 48 62 c93 120 182
289 218 412 l18 61 157 -4 c234 -6 500 24 660 74 80 25 114 50 103 78 -8 21
-24 20 -180 -5 -85 -13 -201 -22 -339 -25 -212 -6 -249 -3 -465 37 -79 15
-117 7 -132 -26 -16 -35 3 -71 47 -92 38 -18 38 -20 8 -118 -37 -117 -150
-305 -246 -409 -49 -52 -57 -57 -124 -70 -90 -18 -129 -39 -153 -79 -18 -30
-29 -35 -195 -81 -96 -27 -177 -47 -179 -45 -3 2 18 31 46 64 77 92 108 137
102 146 -10 16 -47 10 -224 -40 -426 -119 -439 -122 -487 -119 -62 4 -68 26
-19 70 38 34 46 67 21 88 -40 33 -386 -44 -562 -125 -40 -19 -73 -31 -73 -29
0 3 25 35 55 70 54 64 65 87 45 99 -5 3 -153 -34 -327 -84 -459 -130 -505
-142 -509 -139 -2 2 31 46 72 97 41 51 73 98 71 105 -8 21 -131 8 -297 -34
-168 -41 -418 -113 -522 -149 -32 -11 -58 -18 -58 -15 0 2 44 58 98 124 85
103 111 127 186 175 319 200 542 454 630 717 50 148 27 201 -64 147z m-33
-221 c-74 -161 -225 -343 -392 -473 -111 -86 -117 -88 -60 -19 351 422 479
573 483 570 2 -2 -12 -38 -31 -78z"/>
<path d="M8927 7310 c-62 -19 -150 -102 -326 -310 -61 -71 -67 -75 -115 -82
-28 -3 -79 -6 -112 -7 -46 -1 -68 -6 -88 -22 -14 -11 -26 -24 -26 -29 0 -5 48
-11 106 -12 l106 -3 -123 -152 -124 -152 -105 -47 c-58 -25 -168 -67 -245 -91
-107 -35 -146 -52 -167 -74 -37 -39 -36 -52 5 -44 58 13 303 94 363 121 49 22
56 23 43 7 -61 -71 -159 -193 -173 -215 -17 -26 -17 -28 -1 -34 9 -4 159 33
338 84 486 138 511 144 495 125 -7 -9 -41 -50 -75 -92 -63 -75 -76 -107 -49
-117 41 -16 684 147 880 222 11 4 -17 -37 -62 -92 -71 -87 -95 -109 -178 -160
-337 -207 -674 -579 -784 -865 -66 -171 -19 -229 108 -134 84 63 349 357 746
828 131 155 167 192 203 208 92 39 222 81 373 120 139 36 291 79 338 96 9 3
-5 -13 -31 -37 -82 -73 -115 -172 -63 -186 16 -4 168 33 431 106 224 61 410
110 415 108 4 -2 -28 -46 -71 -98 -43 -52 -79 -98 -79 -102 0 -25 64 -11 425
92 217 61 399 110 404 108 6 -1 -26 -46 -69 -98 -44 -52 -80 -101 -80 -107 0
-22 34 -15 258 53 206 62 589 164 618 164 24 0 16 -13 -61 -105 -76 -92 -86
-111 -61 -121 18 -7 611 161 643 181 21 14 40 52 30 61 -3 3 -98 -20 -212 -51
-114 -31 -209 -54 -211 -52 -2 2 25 37 59 78 81 94 91 113 72 129 -12 10 -34
9 -108 -4 -118 -21 -431 -103 -614 -160 -79 -24 -143 -42 -143 -40 0 3 34 44
75 93 77 90 91 121 55 121 -18 0 -259 -66 -673 -185 -71 -20 -131 -34 -134
-31 -3 2 29 45 71 95 42 49 76 97 76 105 0 25 -41 20 -193 -23 -75 -21 -140
-35 -143 -30 -3 5 -29 21 -57 36 -45 23 -67 27 -169 31 -65 2 -154 -1 -200 -8
-132 -19 -605 -142 -808 -209 -63 -22 -116 -38 -116 -37 -1 0 43 55 97 121 55
66 99 125 99 132 0 22 -36 15 -288 -61 -298 -90 -613 -169 -624 -158 -4 4 26
49 67 99 78 96 90 123 53 123 -12 0 -157 -38 -322 -84 -405 -114 -489 -136
-493 -132 -3 2 41 58 96 124 83 100 111 127 167 158 80 45 198 132 276 203
l58 53 1902 -8 c1733 -6 1906 -6 1934 9 29 15 64 56 64 74 0 4 -862 7 -1916 5
-1075 -2 -1915 0 -1913 5 2 5 25 51 51 103 72 147 96 260 59 280 -11 5 -21 10
-23 9 -2 0 -16 -5 -31 -9z m-39 -207 c-11 -27 -39 -78 -61 -115 -40 -65 -43
-68 -81 -68 -44 0 -47 -8 38 95 49 59 118 135 122 135 2 0 -6 -21 -18 -47z
m-193 -274 c-11 -17 -157 -130 -162 -125 -3 3 19 34 48 70 47 57 59 66 87 66
21 0 31 -4 27 -11z m2150 -393 l30 -14 -29 -11 c-38 -15 -425 -121 -442 -121
-43 0 35 88 105 117 99 43 272 57 336 29z m-1612 -431 c-132 -160 -639 -753
-641 -750 -2 2 8 30 23 62 93 203 327 483 546 653 50 38 93 70 96 70 3 0 -8
-16 -24 -35z"/>
<path d="M6685 6930 c-126 -16 -175 -30 -175 -50 0 -14 27 -18 155 -25 66 -4
127 -9 136 -11 19 -5 109 71 109 92 0 18 -55 17 -225 -6z"/>
<path d="M13272 6310 c-65 -27 -123 -98 -108 -135 7 -19 77 -20 114 -1 35 18
78 65 87 94 13 44 -34 65 -93 42z"/>
</g>
</svg>
