<?xml version="1.0" encoding="UTF-8"?>
<svg xmlns="http://www.w3.org/2000/svg"
  viewBox="0 0 1254 1254"
  preserveAspectRatio="xMidYMid meet">
  <g transform="translate(0 1254) scale(0.1 -0.1)" fill="#ffffff" stroke="none">
    <path d="M8281 9939 c-316 -24 -874 -118 -1226 -205 -311 -78 -748 -214 -990
-309 -60 -24 -162 -63 -225 -88 -424 -165 -1083 -501 -1465 -746 -224 -145
-267 -173 -390 -260 -552 -389 -1056 -863 -1414 -1330 -92 -120 -258 -371
-341 -516 -567 -986 -448 -1936 304 -2431 523 -343 1218 -456 2211 -358 415
40 1058 165 1575 305 255 69 591 169 735 219 66 23 197 68 290 99 198 68 697
265 903 357 145 65 172 73 172 52 0 -22 -139 -263 -222 -385 -141 -207 -245
-331 -438 -523 -212 -212 -370 -336 -608 -479 -328 -197 -683 -327 -1058 -386
-137 -22 -452 -30 -596 -16 -249 24 -477 107 -622 227 -85 70 -126 79 -173 40
-40 -34 -57 -83 -51 -152 16 -193 331 -376 753 -439 539 -81 1182 41 1765 334
577 290 1051 713 1412 1261 130 198 276 494 343 700 15 47 32 91 38 97 5 7 82
52 171 100 569 306 1148 699 1418 961 90 88 120 134 100 154 -20 20 -71 -5
-227 -112 -178 -122 -523 -343 -650 -415 -49 -28 -148 -85 -220 -127 -204
-118 -526 -281 -535 -272 -5 5 -3 51 2 103 14 121 -2 316 -36 444 -104 389
-413 664 -839 746 -377 73 -858 26 -1273 -125 -121 -43 -154 -51 -154 -36 0 4
11 25 24 47 179 300 367 687 490 1010 l61 160 535 6 c503 6 747 18 1025 49
240 27 288 33 400 51 501 82 814 213 840 351 10 54 -15 101 -67 127 -66 32
-170 28 -385 -13 -385 -74 -608 -110 -893 -140 -279 -30 -350 -37 -535 -46
-536 -28 -912 3 -1241 101 -157 46 -177 48 -213 12 -78 -78 -38 -250 86 -369
29 -27 53 -58 53 -68 0 -76 -381 -862 -550 -1136 -15 -25 -60 -101 -100 -170
-41 -69 -97 -165 -127 -215 -68 -115 -71 -159 -18 -212 35 -35 37 -36 98 -31
42 4 82 15 122 35 128 65 444 197 569 238 330 110 709 159 971 126 335 -43
563 -183 675 -416 66 -138 84 -226 84 -405 0 -131 -5 -175 -28 -285 -15 -71
-34 -141 -40 -154 -10 -17 -53 -41 -162 -88 -377 -161 -1068 -413 -1414 -514
-541 -159 -854 -235 -1350 -328 -427 -80 -723 -115 -1085 -129 -544 -22 -947
36 -1314 188 -360 149 -628 440 -718 780 -26 99 -28 118 -27 310 0 224 9 288
76 510 225 751 987 1650 2024 2386 953 676 2061 1168 3099 1375 584 116 1200
119 1555 7 107 -34 252 -103 320 -153 196 -144 263 -341 197 -580 -13 -49 -39
-124 -57 -166 -42 -98 -37 -113 30 -107 108 11 265 122 352 251 22 32 54 98
71 146 27 74 31 100 31 191 1 124 -24 216 -84 308 -165 256 -561 425 -1105
472 -137 11 -559 11 -714 -1z"/>
  </g>
</svg>
